<?xml version="1.0" encoding="UTF-8" standalone="no"?>
<!-- Created with Inkscape (http://www.inkscape.org/) -->

<svg
   xmlns:dc="http://purl.org/dc/elements/1.1/"
   xmlns:cc="http://creativecommons.org/ns#"
   xmlns:rdf="http://www.w3.org/1999/02/22-rdf-syntax-ns#"
   xmlns:svg="http://www.w3.org/2000/svg"
   xmlns="http://www.w3.org/2000/svg"
   xmlns:sodipodi="http://sodipodi.sourceforge.net/DTD/sodipodi-0.dtd"
   xmlns:inkscape="http://www.inkscape.org/namespaces/inkscape"
   version="1.1"
   id="svg2"
   width="630"
   height="109"
   viewBox="0 0 630 109"
   sodipodi:docname="beach crawl diagram.svg"
   inkscape:version="0.92.3 (unknown)">
  <metadata
     id="metadata8">
    <rdf:RDF>
      <cc:Work
         rdf:about="">
        <dc:format>image/svg+xml</dc:format>
        <dc:type
           rdf:resource="http://purl.org/dc/dcmitype/StillImage" />
        <dc:title />
      </cc:Work>
    </rdf:RDF>
  </metadata>
  <defs
     id="defs6">
    <marker
       inkscape:isstock="true"
       style="overflow:visible"
       id="marker3651"
       refX="0"
       refY="0"
       orient="auto"
       inkscape:stockid="Arrow2Lend">
      <path
         inkscape:connector-curvature="0"
         transform="matrix(-1.1,0,0,-1.1,-1.1,0)"
         d="M 8.7185878,4.0337352 -2.2072895,0.01601326 8.7185884,-4.0017078 c -1.7454984,2.3720609 -1.7354408,5.6174519 -6e-7,8.035443 z"
         style="fill:#000000;fill-opacity:1;fill-rule:evenodd;stroke:#000000;stroke-width:0.625;stroke-linejoin:round;stroke-opacity:1"
         id="path3649" />
    </marker>
  </defs>
  <sodipodi:namedview
     pagecolor="#ffffff"
     bordercolor="#666666"
     borderopacity="1"
     objecttolerance="10"
     gridtolerance="10"
     guidetolerance="10"
     inkscape:pageopacity="0"
     inkscape:pageshadow="2"
     inkscape:window-width="1920"
     inkscape:window-height="1027"
     id="namedview4"
     showgrid="false"
     inkscape:zoom="1.2312187"
     inkscape:cx="213.63549"
     inkscape:cy="54.950767"
     inkscape:window-x="0"
     inkscape:window-y="25"
     inkscape:window-maximized="1"
     inkscape:current-layer="g4313" />
  <g
     id="g4148"
     transform="translate(4,-42.272385)">
    <g
       aria-label="START"
       transform="matrix(0.47722789,0,0,0.47722789,-524.63672,-216.4368)"
       style="font-style:normal;font-variant:normal;font-weight:500;font-stretch:normal;font-size:39.11478424px;line-height:1.25;font-family:Metropolis;-inkscape-font-specification:'Metropolis Medium';letter-spacing:0px;word-spacing:0px;fill:#000000;fill-opacity:1;stroke:none"
       id="flowRoot819">
      <path
         d="m 1114.9133,641.89047 c 6.3366,0 9.7787,-3.4421 9.7787,-7.97941 0,-4.81112 -3.7159,-6.6104 -9.0747,-7.86207 -4.4199,-1.0561 -6.7277,-1.91663 -6.7277,-4.41997 0,-2.15132 2.1122,-4.06794 5.124,-4.06794 2.7381,0 5.437,1.21256 7.7056,3.28564 l 2.2687,-2.97272 c -2.5816,-2.26866 -5.6716,-3.79414 -9.8178,-3.79414 -5.3979,0 -9.3093,3.40299 -9.3093,7.90119 0,4.85023 3.6376,6.49305 9.1137,7.78384 4.4982,1.01698 6.7278,1.99485 6.7278,4.53732 0,2.15131 -1.9167,4.10705 -5.6326,4.10705 -3.6376,0 -6.4539,-1.48636 -8.8399,-3.75502 l -2.386,2.93361 c 2.8554,2.73803 6.5713,4.30262 11.0695,4.30262 z"
         style="font-style:normal;font-variant:normal;font-weight:500;font-stretch:normal;font-size:39.11478424px;font-family:Metropolis;-inkscape-font-specification:'Metropolis Medium'"
         id="path4169" />
      <path
         d="m 1136.9795,641.46021 h 3.9506 v -23.19507 h 8.8399 v -3.67679 h -21.5913 v 3.67679 h 8.8008 z"
         style="font-style:normal;font-variant:normal;font-weight:500;font-stretch:normal;font-size:39.11478424px;font-family:Metropolis;-inkscape-font-specification:'Metropolis Medium'"
         id="path4171" />
      <path
         d="m 1172.9009,641.46021 h 4.3809 l -11.5389,-26.87186 h -4.3808 l -11.5389,26.87186 h 4.3809 l 2.3469,-5.47607 h 14.003 z m -14.8245,-9.03551 5.4761,-12.75142 5.4761,12.75142 z"
         style="font-style:normal;font-variant:normal;font-weight:500;font-stretch:normal;font-size:39.11478424px;font-family:Metropolis;-inkscape-font-specification:'Metropolis Medium'"
         id="path4173" />
      <path
         d="m 1202.5072,623.35007 c 0,-5.12404 -4.3027,-8.76172 -9.9743,-8.76172 h -11.3042 v 26.87186 h 3.9506 v -9.34843 h 6.1801 l 6.5713,9.34843 h 4.5373 l -6.845,-9.73958 c 4.0679,-1.0561 6.8842,-4.2244 6.8842,-8.37056 z m -17.3279,-5.08493 h 6.806 c 3.8723,0 6.493,1.91663 6.493,5.08493 0,3.16829 -2.6207,5.08492 -6.493,5.08492 h -6.806 z"
         style="font-style:normal;font-variant:normal;font-weight:500;font-stretch:normal;font-size:39.11478424px;font-family:Metropolis;-inkscape-font-specification:'Metropolis Medium'"
         id="path4175" />
      <path
         d="m 1214.4451,641.46021 h 3.9506 v -23.19507 h 8.8399 v -3.67679 h -21.5913 v 3.67679 h 8.8008 z"
         style="font-style:normal;font-variant:normal;font-weight:500;font-stretch:normal;font-size:39.11478424px;font-family:Metropolis;-inkscape-font-specification:'Metropolis Medium'"
         id="path4177" />
    </g>
    <g
       transform="matrix(0.83459705,0,0,0.83459705,11.338088,6.1199311)"
       id="g3703">
      <g
         id="g4313">
        <path
           style="color:#000000;font-style:normal;font-variant:normal;font-weight:normal;font-stretch:normal;font-size:medium;line-height:normal;font-family:sans-serif;font-variant-ligatures:normal;font-variant-position:normal;font-variant-caps:normal;font-variant-numeric:normal;font-variant-alternates:normal;font-feature-settings:normal;text-indent:0;text-align:start;text-decoration:none;text-decoration-line:none;text-decoration-style:solid;text-decoration-color:#000000;letter-spacing:normal;word-spacing:normal;text-transform:none;writing-mode:lr-tb;direction:ltr;text-orientation:mixed;dominant-baseline:auto;baseline-shift:baseline;text-anchor:start;white-space:normal;shape-padding:0;clip-rule:nonzero;display:inline;overflow:visible;visibility:visible;opacity:1;isolation:auto;mix-blend-mode:normal;color-interpolation:sRGB;color-interpolation-filters:linearRGB;solid-color:#000000;solid-opacity:1;vector-effect:none;fill:#000000;fill-opacity:1;fill-rule:nonzero;stroke:none;stroke-width:1.19818294;stroke-linecap:butt;stroke-linejoin:miter;stroke-miterlimit:4;stroke-dasharray:14.37819604, 14.37819604;stroke-dashoffset:0;stroke-opacity:1;color-rendering:auto;image-rendering:auto;shape-rendering:auto;text-rendering:auto;enable-background:accumulate"
           d="m 428.67773,49.494141 h -0.004 -0.004 l -8.91797,0.166015 h -0.004 -0.004 l -5.12891,0.16211 0.0391,1.197265 5.12109,-0.162109 h 0.008 l 8.90235,-0.164063 h 0.008 l 0.31836,-0.002 -0.006,-1.199218 z m 14.70313,1.201171 3.79687,0.04102 h 0.0137 l 9.09375,0.291016 h 0.0137 l 1.42773,0.07617 0.0645,-1.197266 -1.44141,-0.07617 h -0.008 -0.006 l -9.11914,-0.291016 h -0.006 -0.008 l -3.81054,-0.04102 z m -48.93555,0.117188 -0.004,0.002 h -0.006 l -7.92383,0.601563 h -0.006 l -0.004,0.002 -0.62695,0.05859 0.10938,1.191407 0.61718,-0.05664 h 0.0117 l 7.9043,-0.601562 h 0.01 l 5.78125,-0.34961 -0.0723,-1.195312 z m 77.61524,1.208984 1.71093,0.128907 0.0137,0.002 8.35742,0.816406 0.0137,0.002 4.18164,0.503906 0.14258,-1.189453 -4.19336,-0.505859 h -0.008 -0.006 l -8.38477,-0.820313 h -0.008 l -0.006,-0.002 -1.72461,-0.128906 z m -100.64453,0.927735 h -0.006 l -0.006,0.002 -7.14453,0.927734 h -0.006 l -0.006,0.002 -6.87891,1.035157 -0.006,0.002 h -0.006 l -0.0723,0.01367 0.20507,1.179687 0.0586,-0.0098 0.0117,-0.002 6.85351,-1.033203 0.0117,-0.002 7.1211,-0.923828 0.0117,-0.002 0.13282,-0.01367 -0.13086,-1.191406 z m 129.1289,2.537109 5.17578,0.869141 0.0137,0.002 7.31835,1.408203 0.0156,0.0039 1.58008,0.34375 0.25586,-1.169922 -1.59571,-0.347656 -0.008,-0.002 -0.006,-0.002 -7.34765,-1.414063 -0.008,-0.002 h -0.006 l -5.1914,-0.871093 z m -162.2168,3.191406 -0.008,0.002 -0.01,0.002 -5.77735,1.464843 -0.008,0.002 -0.01,0.002 -3.36132,0.96289 0.32812,1.152344 3.3457,-0.958984 0.0176,-0.0039 5.74414,-1.457031 h 0.002 l 0.0137,-0.0039 4.78515,-1.072266 -0.26171,-1.167969 z m 190.27735,2.751954 4.8125,1.310546 0.0156,0.0039 6.21289,1.873047 0.0156,0.0059 2.69141,0.894531 0.3789,-1.136719 -2.70898,-0.90039 -0.008,-0.002 -0.008,-0.002 -6.24414,-1.882812 -0.008,-0.0039 -0.008,-0.002 -4.82617,-1.314453 z m -214.11524,4.707031 -0.006,0.002 -0.006,0.002 -2.2754,0.958984 -0.006,0.002 -0.006,0.0039 -2.20118,0.984375 -0.008,0.002 -0.006,0.0039 -2.12695,1.011719 -0.006,0.002 -0.006,0.0039 -2.05273,1.03711 -0.008,0.0039 -0.006,0.0039 -1.97656,1.0625 -0.008,0.0039 -0.006,0.0059 -1.32617,0.759765 0.5957,1.039063 1.3125,-0.751953 0.0137,-0.0078 1.94922,-1.048828 0.0137,-0.0078 2.02539,-1.025391 v 0.002 l 2.11329,-1.005859 0.0137,-0.0059 2.17578,-0.974609 0.0117,-0.0039 2.25195,-0.949219 0.0117,-0.0039 0.98437,-0.390625 -0.44335,-1.113281 z m -94.15039,-0.164063 h -0.01 l -0.0117,0.002 -4.16992,0.300782 h -0.0117 l -0.0117,0.002 -4.02148,0.439453 -0.0117,0.002 -0.0117,0.002 -3.875,0.580078 -0.0117,0.002 -0.0117,0.0039 -0.47656,0.0918 0.22851,1.175781 0.44922,-0.08789 0.0234,-0.0039 h 0.002 l 3.84961,-0.576172 3.97657,-0.4375 h 0.0117 l 0.01,-0.002 4.12891,-0.296875 1.74609,-0.06445 -0.0449,-1.197266 z m 16.10743,1.279297 2.04296,0.111328 h 0.0156 0.0156 l 12.33204,0.02734 0.002,-1.199219 -12.30078,-0.02539 -2.04297,-0.109375 z m 28.78515,0.167969 3.89063,0.0098 h 0.002 l 10.48242,0.07422 0.008,-1.199218 -10.48437,-0.07422 h -0.002 l -3.89453,-0.0078 z m 28.75196,0.185547 2.89648,0.01953 h 0.004 l 11.47265,0.148438 0.0156,-1.197266 -11.47657,-0.148438 h -0.002 -0.002 l -2.90039,-0.02148 z m 28.74609,0.357422 14.375,0.283203 0.0254,-1.197266 -14.37695,-0.283203 z m 28.74609,0.615234 14.37305,0.394531 0.0312,-1.197265 -14.37109,-0.394532 z m 28.73633,0.904297 6.46484,0.232422 h 0.006 l 7.89063,0.353515 0.0527,-1.195312 -7.89648,-0.355469 h -0.002 -0.002 l -6.4707,-0.232422 z m 175.59375,0.998047 0.79297,0.316406 v 0.002 l 5.05859,2.214844 0.002,0.002 0.0156,0.0059 4.73633,2.271485 0.008,0.0039 0.0117,0.0059 2.3418,1.230469 0.55664,-1.060547 -2.35938,-1.240234 -0.01,-0.0039 -0.01,-0.0059 -4.77539,-2.289062 -0.01,-0.0039 -0.01,-0.0059 -5.07617,-2.222656 -0.01,-0.0039 -0.008,-0.0039 -0.81055,-0.324218 z m -146.87695,0.261719 14.35742,0.771484 0.0645,-1.197266 -14.35742,-0.771484 z m 28.69531,1.46875 0.37695,0.0332 v -0.002 l 4.28516,0.523437 4.06055,0.648437 0.0117,0.002 0.01,0.002 3.86133,0.771484 0.0234,0.0059 1.45507,0.351563 0.28125,-1.164063 -1.47851,-0.357421 -0.0117,-0.0039 -0.0117,-0.002 -3.90625,-0.78125 -0.0117,-0.002 -0.0117,-0.002 -4.10547,-0.65625 -0.01,-0.002 h -0.0117 L 438.125,71.050781 h -0.01 l -0.0117,-0.002 -0.37696,-0.03125 z m -246.69141,0.148437 -0.0156,0.0078 -0.0156,0.0078 -2.97656,1.427734 -0.0156,0.0078 -0.0156,0.0098 -2.82812,1.570313 -0.0117,0.0059 -0.0117,0.0078 -1.35742,0.839844 -0.008,0.0039 -0.008,0.0059 -1.32031,0.875 -0.008,0.0039 -0.008,0.0059 -1.28125,0.910156 -0.008,0.0059 -0.008,0.0059 -0.0449,0.03516 0.72461,0.953125 0.0293,-0.02344 0.008,-0.0059 0.008,-0.0059 1.25,-0.886719 0.0156,-0.01172 1.28907,-0.853515 0.0137,-0.0078 0.002,-0.002 1.31641,-0.814453 0.0137,-0.0078 0.01,-0.0059 2.80468,-1.55664 2.91406,-1.398438 0.0195,-0.0078 0.0117,-0.0059 2.77343,-1.140625 -0.45508,-1.109375 z m 274.32032,6.625 1.51367,0.658203 0.0117,0.0059 0.0137,0.0059 2.72656,1.339844 2.59766,1.433593 2.37109,1.464844 2.22266,1.53125 h 0.002 l 0.83984,0.646484 0.73047,-0.949218 -0.84179,-0.646485 -0.0117,-0.0098 -0.0137,-0.0098 -2.24805,-1.548828 -0.0117,-0.0098 -0.0137,-0.0078 -2.42188,-1.496094 -0.0117,-0.0078 -0.0137,-0.0059 -2.59765,-1.433594 -0.0117,-0.0078 -0.0137,-0.0059 -2.77735,-1.365235 -0.0117,-0.0059 -0.0117,-0.0059 -1.53906,-0.667969 z m -174.63282,1.783203 -0.008,0.0078 -0.01,0.0078 -1.2793,1.298828 -0.008,0.0098 -0.01,0.0098 -1.19922,1.324219 -0.008,0.0098 -0.01,0.0098 -1.11914,1.351563 -0.01,0.01172 -0.008,0.0098 -1.03906,1.376953 -0.008,0.01172 -0.008,0.01172 -0.95899,1.404297 -0.008,0.01172 -0.008,0.01172 -0.87891,1.429688 -0.008,0.01172 -0.006,0.01367 -0.79687,1.455079 -0.008,0.01367 -0.006,0.01367 -0.71484,1.480469 -0.006,0.01367 -0.006,0.01563 -0.13672,0.326172 1.10352,0.46289 0.13867,-0.326171 0.70117,-1.453125 0.76563,-1.400391 0.006,-0.0098 0.01,-0.01758 0.8457,-1.376953 0.94336,-1.380859 1.02149,-1.355469 0.0156,-0.01758 0.002,-0.0039 1.08593,-1.310547 0.0176,-0.01758 v -0.002 l 1.16406,-1.28711 0.0176,-0.01953 1.2461,-1.263672 0.004,-0.0039 0.0117,-0.01172 0.16797,-0.158203 -0.81836,-0.873047 z m 290.36719,3.167969 1.33789,0.960937 0.0117,0.0098 1.61719,1.228516 0.0117,0.0098 1.53515,1.230469 0.0137,0.01172 1.45313,1.234375 0.002,0.002 0.0117,0.0098 1.36914,1.234376 0.0137,0.01367 1.28711,1.236329 0.008,0.0078 0.006,0.0059 1.20312,1.234375 0.0137,0.01563 0.82031,0.90625 0.88868,-0.804687 -0.83594,-0.921875 -0.008,-0.0078 -0.006,-0.0078 -1.23242,-1.263672 -0.006,-0.0078 -0.008,-0.0059 -1.31445,-1.263672 -0.006,-0.0059 -0.008,-0.0059 -1.39649,-1.261719 -0.008,-0.0059 -0.006,-0.0059 -1.47851,-1.255859 -0.008,-0.0059 -0.006,-0.0059 -1.56054,-1.251953 -0.006,-0.0039 -0.008,-0.0059 -1.64063,-1.246094 -0.008,-0.0059 -0.006,-0.0039 -1.34766,-0.970703 z m -410.8125,5.324219 -0.006,0.0078 -0.006,0.0098 -0.86328,1.304687 -0.006,0.0078 -0.006,0.0078 -0.82617,1.339844 -0.006,0.0098 -0.004,0.0078 -0.65039,1.134766 -0.51367,-0.0059 -0.0137,0.976563 -0.37109,0.701172 -0.004,0.0078 -0.004,0.0078 -0.71289,1.449218 -0.006,0.01367 -0.006,0.01172 -1.3086,3.005859 -0.008,0.01758 -0.006,0.01563 -0.72461,1.972654 1.125,0.41211 0.72461,-1.970702 1.28516,-2.949219 0.006,-0.01172 0.006,-0.01367 0.69141,-1.40625 0.54492,-1.027344 13.14258,0.167969 0.0156,-1.197266 -12.49414,-0.160156 0.31054,-0.541016 0.01,-0.01563 0.80664,-1.30664 0.85351,-1.289063 0.0117,-0.01563 0.60156,-0.845703 -0.97656,-0.695312 z m -89.164061,3.890625 14.376953,0.195312 0.01563,-1.199219 -14.376953,-0.195312 z m 28.753901,0.390625 3.20508,0.04492 h 0.002 l 11.16992,0.142578 0.0156,-1.199219 -11.16992,-0.142578 h -0.002 l -3.20508,-0.04297 z m 28.75391,0.371093 14.37695,0.185547 0.0156,-1.199218 -14.37695,-0.183594 z m 57.50781,0.728516 14.37891,0.169922 0.0137,-1.199219 -14.37695,-0.167969 z m 28.75586,0.337891 6.4668,0.07617 h 0.002 l 7.90821,0.08398 0.0137,-1.197266 -7.90821,-0.08398 h -0.002 l -6.46679,-0.07617 z m 28.75391,0.3125 14.37891,0.15039 0.0117,-1.197265 -14.37695,-0.152344 z m 28.75781,0.285156 14.37696,0.121094 0.01,-1.197266 -14.37695,-0.123047 z m 28.75781,0.242187 14.37696,0.0625 0.006,-1.199218 -14.37891,-0.06055 z m 28.75196,0.128907 3.55078,0.03906 h 0.0117 l 4.31445,0.142578 h 0.0137 l 4.16016,0.236328 2.26758,0.183594 0.0977,-1.195312 -2.26953,-0.183594 h -0.008 -0.006 L 347.75,94.931641 h -0.008 -0.006 l -4.3418,-0.144532 h -0.006 -0.008 L 339.81641,94.75 Z m 147.44726,0.357422 0.44336,0.679687 0.006,0.0098 0.92578,1.638671 0.008,0.01367 0.79101,1.636716 0.002,0.004 0.66602,1.65625 0.002,0.006 0.50782,1.57812 0.37109,1.52149 0.002,0.0137 0.24219,1.48438 v 0.002 l 0.11523,1.46289 -0.0156,1.38281 -0.004,0.041 1.19141,0.12695 0.008,-0.0762 0.002,-0.0293 0.002,-0.0273 0.0137,-1.42969 0.002,-0.0273 -0.002,-0.0254 -0.11719,-1.49415 -0.002,-0.0234 -0.004,-0.0254 -0.25,-1.54688 -0.004,-0.0234 -0.006,-0.0234 -0.38672,-1.59375 -0.006,-0.0215 -0.006,-0.0215 -0.52734,-1.63281 -0.008,-0.0195 -0.008,-0.0195 -0.66992,-1.666012 -0.008,-0.01758 -0.008,-0.01953 -0.81445,-1.6875 -0.01,-0.01758 -0.01,-0.01758 -0.96289,-1.703125 -0.01,-0.01758 -0.01,-0.01563 -0.44727,-0.689453 z m -118.94726,2.11914 2.10937,0.40625 0.0156,0.0039 h 0.002 l 3.23633,0.728516 0.0176,0.0039 3.08398,0.798824 0.0195,0.006 2.95313,0.87696 2.3789,0.80078 0.38282,-1.13672 -2.40039,-0.80664 -0.01,-0.004 -0.0117,-0.004 -2.9707,-0.880863 -0.0117,-0.002 -0.01,-0.0039 -3.12109,-0.808594 -0.01,-0.002 -0.01,-0.0039 -3.27344,-0.734375 -0.008,-0.0039 h -0.01 l -2.125,-0.410156 z m 230.23242,6.992192 0.0918,0.39453 0.18359,1.14062 0.002,0.0137 0.0996,1.16016 0.0117,1.13086 v 0.006 0.0215 l -0.043,1.16797 v 0.01 l -0.12304,1.13867 -0.20313,1.1543 -0.27734,1.13476 -0.006,0.0176 -0.004,0.0176 -0.35351,1.13476 -0.004,0.0117 -0.42969,1.13867 v 0.002 l -0.48633,1.10742 -0.006,0.0117 -0.008,0.0176 -0.56836,1.1289 -0.20117,0.35742 1.04492,0.5879 0.21485,-0.38282 0.006,-0.0117 0.008,-0.0117 0.58008,-1.1582 0.008,-0.0137 0.006,-0.0156 0.51172,-1.16601 0.008,-0.0156 0.006,-0.0137 0.43945,-1.17383 0.008,-0.0176 0.004,-0.0156 0.36719,-1.18164 0.006,-0.0176 0.004,-0.0176 0.29102,-1.18945 0.004,-0.0176 0.004,-0.0195 0.21094,-1.19531 0.004,-0.0195 0.002,-0.0215 0.1289,-1.19921 0.002,-0.0215 v -0.0215 l 0.0449,-1.20508 v -0.0156 -0.0137 l -0.0137,-1.18164 v -0.0234 l -0.002,-0.0215 -0.10352,-1.19531 -0.002,-0.0215 -0.002,-0.0215 -0.19336,-1.20703 -0.004,-0.0195 -0.004,-0.0195 -0.0957,-0.41406 z m -318.63672,1.33789 0.125,0.84961 0.002,0.0156 0.004,0.0176 0.25195,1.21289 0.004,0.0156 0.004,0.0176 0.32421,1.21094 0.004,0.0156 0.004,0.0156 0.39648,1.21094 0.006,0.0156 0.006,0.0137 0.4668,1.21094 0.004,0.0137 0.006,0.0137 0.53711,1.20898 0.006,0.0117 0.006,0.0137 0.60742,1.20508 0.006,0.0117 0.006,0.0117 0.67383,1.20312 0.006,0.0117 0.008,0.01 0.74024,1.19921 0.008,0.01 0.006,0.0117 0.80859,1.19336 0.006,0.01 0.008,0.01 0.8711,1.1875 0.008,0.01 0.006,0.008 0.0508,0.0645 0.93945,-0.74414 -0.0371,-0.0469 -0.002,-0.004 -0.0117,-0.0137 -0.8457,-1.15235 -0.79492,-1.17382 -0.72852,-1.17579 -0.0117,-0.0215 -0.64843,-1.15625 -0.004,-0.01 -0.01,-0.0156 -0.59179,-1.18164 -0.51368,-1.1543 -0.002,-0.008 -0.01,-0.0195 -0.45313,-1.17774 -0.002,-0.004 -0.38477,-1.18164 -0.30859,-1.14844 -0.004,-0.0176 -0.004,-0.0156 -0.24024,-1.16602 -0.002,-0.0117 -0.11914,-0.81445 z m 114.99414,1.45507 1.33008,0.89844 1.73633,1.3125 0.008,0.008 1.62891,1.38672 0.008,0.008 1.44531,1.39257 0.008,0.008 1.34375,1.47461 0.004,0.006 1.17578,1.48438 0.01,0.0117 1.02929,1.50781 0.20508,0.35352 1.03711,-0.59961 -0.21484,-0.37305 -0.0117,-0.0176 -0.0137,-0.0195 -1.06641,-1.5625 -0.0137,-0.0176 -0.0117,-0.0176 -1.21289,-1.52539 -0.0117,-0.0176 -0.0137,-0.0137 -1.35547,-1.48828 -0.0137,-0.0137 -0.0137,-0.0137 -1.5,-1.44531 -0.0137,-0.0137 -0.0137,-0.0117 -1.64453,-1.40235 -0.0137,-0.01 -0.0137,-0.0117 -1.78906,-1.35352 -0.0137,-0.01 -0.0137,-0.01 -1.33008,-0.89648 z m -234.32226,8.41602 -0.002,0.0117 -0.002,0.0137 -0.38672,3.88086 -0.002,0.0117 v 0.0117 l -0.23242,4.02734 v 0.0117 0.0117 l -0.0781,4.17383 v 0.01 0.01 l 0.0137,0.97265 1.19727,-0.0156 -0.0137,-0.95508 v -0.008 -0.0117 l 0.0781,-4.1543 0.23047,-3.97656 0.002,-0.0117 v -0.0137 l 0.38477,-3.85547 0.18164,-1.25781 -1.18555,-0.17188 z m 329.33007,8.10156 -0.3125,1.60547 h 0.002 l -0.34766,1.51367 -0.39062,1.48242 -0.006,0.0176 v 0.002 l -0.42774,1.41015 -0.47461,1.37891 -0.004,0.01 -0.004,0.0117 -0.50977,1.3086 -0.006,0.0137 -0.004,0.01 -0.56055,1.28125 -0.5918,1.21094 -0.002,0.004 -0.01,0.0195 -0.59375,1.0918 1.05468,0.57031 0.60352,-1.11328 0.008,-0.0117 0.006,-0.0117 0.61328,-1.25781 0.006,-0.01 0.004,-0.0117 0.57031,-1.30468 0.006,-0.0117 0.004,-0.0117 0.52734,-1.35156 0.004,-0.0117 0.004,-0.0117 0.48242,-1.40039 0.004,-0.0117 0.004,-0.01 0.43945,-1.45117 0.004,-0.0117 0.002,-0.01 0.39844,-1.50196 0.002,-0.01 0.002,-0.01 0.35547,-1.55273 0.002,-0.01 0.002,-0.01 0.31054,-1.60547 0.002,-0.01 0.002,-0.008 0.16992,-1.04102 -1.18359,-0.19336 z m -193.66015,5.38672 1.80859,1.38281 0.0117,0.008 0.01,0.008 3.11718,2.16601 0.01,0.008 0.0117,0.006 3.32812,2.11132 0.01,0.006 0.0117,0.006 3.53515,2.05078 0.01,0.006 0.01,0.004 0.24415,0.13086 0.5625,-1.05859 -0.22657,-0.11915 -0.01,-0.006 -0.008,-0.004 -3.49609,-2.0293 -3.30859,-2.0957 h -0.002 l -0.0195,-0.0137 -3.07226,-2.13477 -0.0176,-0.0137 -0.006,-0.004 -1.78516,-1.36718 z m 289.0039,1.27734 -0.0176,0.0156 -2.44141,1.98437 -0.0117,0.008 -0.006,0.006 -2.55469,1.92968 -2.67382,1.89258 -1.70118,1.13477 0.66407,0.99805 1.71679,-1.14454 0.006,-0.004 0.008,-0.006 2.67382,-1.89258 0.008,-0.006 0.006,-0.006 2.58789,-1.95508 0.008,-0.006 0.008,-0.006 2.47656,-2.01367 0.01,-0.008 0.01,-0.008 1.95508,-1.72461 -0.79297,-0.89844 z m -177.32812,1.45118 v 0.0137 l -0.15235,1.85156 -0.25195,1.81445 -0.004,0.0156 -0.002,0.0195 -0.34179,1.71289 -0.004,0.0137 -0.43555,1.66602 -0.002,0.008 -0.52734,1.60938 -0.004,0.0117 -0.61133,1.53907 -0.004,0.008 -0.69335,1.48438 -0.008,0.0137 -0.008,0.0176 -0.23437,0.42774 1.05273,0.57226 0.25,-0.45898 0.008,-0.0156 0.008,-0.0156 0.71485,-1.52344 0.008,-0.0176 0.006,-0.0156 0.62891,-1.58594 0.008,-0.0176 0.006,-0.0176 0.54101,-1.64844 0.006,-0.0176 0.004,-0.0176 0.45117,-1.71484 0.004,-0.0176 0.004,-0.0176 0.35547,-1.78125 0.004,-0.0176 0.002,-0.0176 0.25781,-1.84961 0.002,-0.0176 0.002,-0.0176 0.15625,-1.91797 0.002,-0.0176 v -0.0156 l 0.0371,-1.34766 -1.19726,-0.0312 z m -86.54102,11.39062 2.84375,1.16797 0.008,0.004 0.01,0.002 4.45313,1.67383 0.008,0.004 0.01,0.002 4.61524,1.58203 0.008,0.002 0.008,0.004 1.5918,0.49414 0.35547,-1.14453 -1.57422,-0.48828 -0.0156,-0.006 -4.58399,-1.57032 -0.0156,-0.006 -4.42188,-1.66015 -0.0176,-0.008 -2.82617,-1.16016 z m -158.86133,-0.1914 0.42188,1.03515 0.008,0.0195 0.008,0.0176 0.93555,1.91406 0.01,0.0195 0.01,0.0176 1.05469,1.82422 0.01,0.0176 0.0117,0.0176 1.16796,1.73633 0.0117,0.0176 0.0117,0.0156 1.2832,1.65234 0.0117,0.0156 0.0117,0.0137 1.39258,1.57031 0.0137,0.0137 0.0137,0.0137 1.49805,1.48632 0.0137,0.0137 0.0137,0.0117 0.47266,0.41601 0.79102,-0.90039 -0.47266,-0.41602 -1.46289,-1.45312 -0.01,-0.01 -1.35742,-1.53125 -0.01,-0.01 -1.24805,-1.60938 -0.008,-0.0117 -1.13672,-1.69336 -0.008,-0.0117 -1.03125,-1.78907 -0.91211,-1.86914 -0.004,-0.008 -0.4043,-0.99805 z m 395.77735,4.36718 -0.01,0.004 -0.006,0.004 -5.03515,2.44336 -0.0117,0.006 -2.54883,1.16407 0.49805,1.08984 2.56054,-1.16992 0.006,-0.002 0.008,-0.004 5.0625,-2.45703 0.006,-0.004 0.008,-0.004 5.26758,-2.73633 -0.55274,-1.0625 z m -82.66406,-0.92773 -0.0195,0.0117 -1.16211,0.69922 -0.0195,0.0117 -1.20898,0.66602 -0.0195,0.01 -1.24805,0.63086 -0.002,0.002 -2.69336,1.1914 -2.91992,1.08204 h -0.002 l -3.05273,0.94336 -0.0234,0.006 -0.006,0.002 -0.17773,0.0449 0.29883,1.16016 0.20507,-0.0527 0.0137,-0.004 0.0156,-0.004 3.11133,-0.96094 0.0156,-0.006 0.0156,-0.006 2.92188,-1.08008 0.0176,-0.008 0.0156,-0.006 2.73242,-1.20898 0.0137,-0.006 0.0137,-0.006 1.29493,-0.6543 0.01,-0.006 0.01,-0.004 1.24804,-0.6875 0.01,-0.006 0.01,-0.006 1.20117,-0.72266 0.01,-0.006 0.01,-0.008 0.44336,-0.29102 -0.65821,-1 z m -126.79102,5.50976 4.47852,1.00586 0.008,0.002 h 0.008 l 5.3125,1.04687 0.008,0.002 0.008,0.002 4.31054,0.73437 0.20118,-1.18164 -4.31055,-0.73437 -5.28125,-1.04102 -0.0156,-0.004 -4.46484,-1.00196 z m 100.125,2.50977 h -0.008 l -0.008,0.002 -4.06446,0.46289 -0.0156,0.002 -4.26953,0.38476 -4.49024,0.31836 v -0.002 l -1.3418,0.0723 0.0645,1.19727 1.3418,-0.0723 h 0.004 l 0.006,-0.002 4.5,-0.3164 h 0.006 0.006 l 4.29687,-0.38868 h 0.006 l 0.008,-0.002 4.0957,-0.46484 0.008,-0.002 h 0.008 l 0.0859,-0.0137 -0.16797,-1.18555 z m -54.97656,0.95117 -0.0195,0.0137 -1.39649,0.89258 -0.0156,0.008 -0.004,0.004 -0.87305,0.51172 0.0215,-0.54297 -4.74414,-0.1875 -5.79297,-0.37891 -0.0156,-0.002 -3.76171,-0.34375 -0.10938,1.19336 3.77734,0.3457 h 0.008 0.008 l 5.82422,0.38282 h 0.008 0.008 l 3.6875,0.14648 -0.99609,0.53906 -0.0176,0.01 -1.5293,0.76172 -0.0176,0.008 -1.56836,0.7207 -0.0156,0.008 -1.5957,0.67773 -0.004,0.002 -0.0195,0.008 -2.0918,0.78906 0.42188,1.12109 2.11719,-0.79883 0.0117,-0.004 0.01,-0.006 1.63477,-0.69336 0.008,-0.004 0.008,-0.004 1.60156,-0.73633 0.01,-0.004 0.008,-0.004 1.56446,-0.7793 0.01,-0.004 0.008,-0.006 1.52539,-0.82422 0.01,-0.006 0.008,-0.004 1.48242,-0.8711 0.01,-0.006 0.01,-0.006 1.43554,-0.91797 0.01,-0.006 0.01,-0.008 1.37305,-0.95704 -0.68555,-0.98242 z m 16.54687,0.96875 h -0.008 l -4.47461,0.0156 0.004,1.19922 4.48242,-0.0176 h 0.004 0.004 l 9.89453,-0.14649 -0.0176,-1.19922 z m -227.34375,6.16406 0.68164,0.30469 0.01,0.004 0.0117,0.004 2.26758,0.91016 0.01,0.004 0.01,0.004 2.35156,0.84571 0.01,0.004 0.01,0.002 2.43164,0.78515 0.01,0.004 0.008,0.002 2.51172,0.72656 0.01,0.002 0.008,0.002 2.58789,0.66797 0.008,0.002 0.008,0.002 0.82422,0.18945 0.26953,-1.16602 -0.80859,-0.1875 -0.0117,-0.002 -0.004,-0.002 -2.55664,-0.66016 -0.0176,-0.004 -2.47656,-0.71484 -0.0176,-0.006 -2.39648,-0.77344 -0.0195,-0.006 -2.3125,-0.83203 -0.0195,-0.008 -2.22656,-0.89453 -0.67969,-0.30274 z m 184.29688,2.51954 -0.0156,0.002 -3.54492,0.60351 v -0.002 l -3.52734,0.50586 -0.0137,0.002 -3.47071,0.41211 v 0.002 l -2.09375,0.20507 0.11719,1.19336 2.10547,-0.20898 h 0.006 0.006 l 3.48437,-0.41602 0.008,-0.002 h 0.006 l 3.54297,-0.50586 0.008,-0.002 0.008,-0.002 3.57617,-0.60742 h 0.01 l 0.008,-0.002 1.51758,-0.30469 -0.23633,-1.17383 z m -28.74805,2.68945 h -0.006 l -4.43554,0.13476 h -0.004 -0.004 l -3.27929,0.14454 h -0.0137 l -0.0137,0.002 -1.14062,0.10156 -0.0254,0.002 -0.0254,0.004 -0.72071,0.12695 -2.89843,0.0176 0.008,1.19922 2.94531,-0.0176 h 0.0508 l 0.0488,-0.01 0.75586,-0.13086 1.08203,-0.0977 h 0.01 l 0.0176,-0.002 3.24414,-0.14258 h 0.008 l 4.43164,-0.13477 h 0.004 0.002 l 1.77539,-0.0664 -0.0469,-1.19727 z m -127.56445,1.75 2.01172,0.24609 0.004,0.002 h 0.006 l 3.05078,0.32226 0.006,0.002 h 0.006 l 6.26563,0.52344 0.008,0.002 h 0.008 l 2.99219,0.17383 0.0684,-1.19726 -2.99023,-0.17383 -6.23829,-0.51953 v -0.002 l -3.04101,-0.32032 v -0.002 l -2.00977,-0.24609 z m 89.04687,-0.68555 h -0.002 -0.002 l -2.81055,0.0957 0.041,1.19727 2.80468,-0.0957 h 0.004 l 11.56055,-0.3086 -0.0332,-1.19726 z m -29.31836,0.96485 h -0.004 l -2.22852,0.0586 0.0312,1.19726 2.23242,-0.0566 h 0.002 0.002 l 12.13867,-0.39062 -0.0391,-1.19922 z m -30.98046,1.51171 2.5664,0.0469 h 0.004 0.004 l 6.94922,0.0234 h 0.002 0.004 l 4.86524,-0.0449 -0.0117,-1.19727 -4.85547,0.043 h -0.006 -0.002 l -6.93164,-0.0215 h -0.01 l -2.55664,-0.0469 z"
           id="path817"
           inkscape:connector-curvature="0" />
        <path
           inkscape:connector-curvature="0"
           d="m 68.286166,87.054836 14.324588,5.496932 -14.473217,5.092749 c 2.344217,-3.093786 2.390992,-7.37098 0.148629,-10.589681 z"
           style="fill:#000000;fill-opacity:1;fill-rule:evenodd;stroke:#000000;stroke-width:0.82375079;stroke-linejoin:round;stroke-opacity:1"
           id="path4319" />
        <path
           inkscape:connector-curvature="0"
           d="m 326.06942,90.021762 14.40032,5.295363 -14.40032,5.295365 c 2.30057,-3.126383 2.28731,-7.403813 0,-10.590728 z"
           style="fill:#000000;fill-opacity:1;fill-rule:evenodd;stroke:#000000;stroke-width:0.82375079;stroke-linejoin:round;stroke-opacity:1"
           id="path4321" />
        <path
           inkscape:connector-curvature="0"
           d="m 414.35647,118.277 -5.82399,14.19476 -4.75949,-14.5862 c 3.03921,2.41455 7.3142,2.5594 10.58348,0.39144 z"
           style="fill:#000000;fill-opacity:1;fill-rule:evenodd;stroke:#000000;stroke-width:0.82375079;stroke-linejoin:round;stroke-opacity:1"
           id="path4323" />
        <path
           inkscape:connector-curvature="0"
           d="m 342.51515,173.50736 -14.96828,-3.37056 13.58599,-7.12957 c -1.87284,3.3999 -1.30141,7.63901 1.38229,10.50013 z"
           style="fill:#000000;fill-opacity:1;fill-rule:evenodd;stroke:#000000;stroke-width:0.82375079;stroke-linejoin:round;stroke-opacity:1"
           id="path4325" />
        <path
           inkscape:connector-curvature="0"
           d="m 155.07246,141.5662 5.38415,-14.36736 5.20637,14.43273 c -3.11212,-2.31982 -7.38955,-2.33297 -10.59052,-0.0654 z"
           style="fill:#000000;fill-opacity:1;fill-rule:evenodd;stroke:#000000;stroke-width:0.82375079;stroke-linejoin:round;stroke-opacity:1"
           id="path4327" />
        <path
           inkscape:connector-curvature="0"
           d="m 225.90004,61.019186 14.21354,5.778019 -14.57073,4.80668 c 2.40471,-3.047011 2.53572,-7.322454 0.35719,-10.584699 z"
           style="fill:#000000;fill-opacity:1;fill-rule:evenodd;stroke:#000000;stroke-width:0.82375079;stroke-linejoin:round;stroke-opacity:1"
           id="path4329" />
        <path
           inkscape:connector-curvature="0"
           d="m 411.25255,65.261011 14.24098,5.710022 -14.54758,4.876263 c 2.39011,-3.058469 2.50069,-7.33449 0.3066,-10.586285 z"
           style="fill:#000000;fill-opacity:1;fill-rule:evenodd;stroke:#000000;stroke-width:0.82375079;stroke-linejoin:round;stroke-opacity:1"
           id="path4331" />
        <path
           inkscape:connector-curvature="0"
           d="m 492.1641,137.25531 -12.62335,8.72131 3.96602,-14.82164 c 1.23049,3.68141 4.73469,6.1344 8.65733,6.10033 z"
           style="fill:#000000;fill-opacity:1;fill-rule:evenodd;stroke:#000000;stroke-width:0.82375079;stroke-linejoin:round;stroke-opacity:1"
           id="path4333" />
        <path
           inkscape:connector-curvature="0"
           d="m 411.62247,163.37721 -14.40032,-5.29536 14.40032,-5.29537 c -2.30057,3.12638 -2.28731,7.40381 0,10.59073 z"
           style="fill:#000000;fill-opacity:1;fill-rule:evenodd;stroke:#000000;stroke-width:0.82375079;stroke-linejoin:round;stroke-opacity:1"
           id="path4335" />
        <path
           inkscape:connector-curvature="0"
           d="m 291.19922,132.47814 -5.83946,-14.1884 13.64025,7.02521 c -3.85881,0.42004 -7.00045,3.32291 -7.80079,7.16319 z"
           style="fill:#000000;fill-opacity:1;fill-rule:evenodd;stroke:#000000;stroke-width:0.82375079;stroke-linejoin:round;stroke-opacity:1"
           id="path4337" />
        <path
           inkscape:connector-curvature="0"
           d="m 425.03158,44.722094 14.40032,5.295363 -14.40032,5.295361 c 2.30057,-3.126379 2.28731,-7.403809 0,-10.590724 z"
           style="fill:#000000;fill-opacity:1;fill-rule:evenodd;stroke:#000000;stroke-width:0.82375079;stroke-linejoin:round;stroke-opacity:1"
           id="path4339" />
        <path
           inkscape:connector-curvature="0"
           d="m 552.369,64.177344 11.84841,9.748092 -15.34104,0.250153 c 3.20289,-2.19279 4.60099,-6.235298 3.49263,-9.998245 z"
           style="fill:#000000;fill-opacity:1;fill-rule:evenodd;stroke:#000000;stroke-width:0.82375079;stroke-linejoin:round;stroke-opacity:1"
           id="path4341" />
        <path
           inkscape:connector-curvature="0"
           d="m 553.44953,157.87948 -15.34297,0.059 11.64963,-9.9848 c -1.06587,3.73239 0.43824,7.73667 3.69334,9.92585 z"
           style="fill:#000000;fill-opacity:1;fill-rule:evenodd;stroke:#000000;stroke-width:0.82375079;stroke-linejoin:round;stroke-opacity:1"
           id="path4343" />
        <circle
           style="fill:#000000;fill-opacity:1;stroke:#ffffff;stroke-width:3.59454894;stroke-miterlimit:4;stroke-dasharray:none;stroke-opacity:1"
           id="path856"
           cx="167.77487"
           cy="96.003464"
           r="10.28054" />
        <circle
           r="10.28054"
           cy="98.399826"
           cx="278.00769"
           id="circle858"
           style="fill:#000000;fill-opacity:1;stroke:#ffffff;stroke-width:3.59454894;stroke-miterlimit:4;stroke-dasharray:none;stroke-opacity:1" />
        <circle
           style="fill:#000000;fill-opacity:1;stroke:#ffffff;stroke-width:3.59454894;stroke-miterlimit:4;stroke-dasharray:none;stroke-opacity:1"
           id="circle860"
           cx="388.24051"
           cy="100.79619"
           r="10.28054" />
        <circle
           r="10.28054"
           cy="100.79619"
           cx="491.28421"
           id="circle862"
           style="fill:#000000;fill-opacity:1;stroke:#ffffff;stroke-width:3.59454894;stroke-miterlimit:4;stroke-dasharray:none;stroke-opacity:1" />
        <circle
           style="fill:#000000;fill-opacity:1;stroke:#ffffff;stroke-width:3.59454894;stroke-miterlimit:4;stroke-dasharray:none;stroke-opacity:1"
           id="circle864"
           cx="596.72437"
           cy="103.19255"
           r="10.28054" />
      </g>
      <path
         style="fill:none;stroke:#000000;stroke-width:1.19818294;stroke-linecap:butt;stroke-linejoin:miter;stroke-miterlimit:4;stroke-dasharray:none;stroke-opacity:1;marker-end:url(#marker3651)"
         d="m 629.22097,101.78506 h 93.80949"
         id="path3629"
         inkscape:connector-curvature="0" />
    </g>
    <g
       aria-label="etc. etc. etc. "
       transform="matrix(0.47722789,0,0,0.47722789,-20.966942,-161.99761)"
       style="font-style:normal;font-variant:normal;font-weight:500;font-stretch:normal;font-size:39.11478424px;line-height:1.25;font-family:Metropolis;-inkscape-font-specification:'Metropolis Medium';letter-spacing:0px;word-spacing:0px;fill:#000000;fill-opacity:1;stroke:none"
       id="flowRoot819-3">
      <path
         d="m 1114.4439,638.48749 c -3.4812,0 -5.9455,-2.42512 -6.4539,-5.78899 h 15.9197 c 0,-7.23624 -3.5595,-11.93001 -9.7396,-11.93001 -5.5934,0 -10.0916,4.45909 -10.0916,10.52188 0,6.21925 4.772,10.63922 10.4045,10.63922 2.8554,0 6.3757,-1.21256 8.175,-3.12918 l -2.4251,-2.50335 c -1.2126,1.25167 -3.6768,2.19043 -5.789,2.19043 z m -0.1174,-14.2769 c 3.4813,0 5.3979,2.26866 5.8281,5.39784 h -12.1255 c 0.6258,-3.28564 3.1683,-5.39784 6.2974,-5.39784 z"
         style="font-style:normal;font-variant:normal;font-weight:500;font-stretch:normal;font-size:39.11478424px;font-family:Metropolis;-inkscape-font-specification:'Metropolis Medium'"
         id="path4180" />
      <path
         d="m 1137.8639,637.82254 c -0.4303,0.43026 -1.2126,0.74318 -2.0731,0.74318 -1.1343,0 -2.0731,-1.01699 -2.0731,-2.42512 v -11.61709 h 4.772 v -3.28564 h -4.772 v -5.5543 h -3.7941 v 5.5543 h -3.051 v 3.28564 h 3.051 v 11.89089 c 0,3.24653 2.1904,5.51519 5.3196,5.51519 1.4472,0 2.9336,-0.54761 4.0288,-1.44725 z"
         style="font-style:normal;font-variant:normal;font-weight:500;font-stretch:normal;font-size:39.11478424px;font-family:Metropolis;-inkscape-font-specification:'Metropolis Medium'"
         id="path4182" />
      <path
         d="m 1152.7629,641.92959 c 3.0119,0 5.6326,-1.25167 7.5883,-3.24653 l -2.6207,-2.386 c -1.2517,1.40813 -3.0509,2.26866 -4.9285,2.26866 -3.7159,0 -6.7668,-3.28565 -6.7668,-7.23624 0,-3.91148 3.0509,-7.19712 6.7277,-7.19712 1.8775,0 3.6377,0.82141 4.8503,2.19043 l 2.6207,-2.42512 c -1.9167,-1.91662 -4.5374,-3.12918 -7.4319,-3.12918 -5.7889,0 -10.6783,4.81112 -10.6783,10.56099 0,5.74988 4.8894,10.60011 10.6392,10.60011 z"
         style="font-style:normal;font-variant:normal;font-weight:500;font-stretch:normal;font-size:39.11478424px;font-family:Metropolis;-inkscape-font-specification:'Metropolis Medium'"
         id="path4184" />
      <path
         d="m 1166.9585,641.92959 c 1.4082,0 2.5425,-1.21256 2.5425,-2.65981 0,-1.3299 -1.1343,-2.54246 -2.5425,-2.54246 -1.4863,0 -2.6206,1.21256 -2.6206,2.54246 0,1.44725 1.1343,2.65981 2.6206,2.65981 z"
         style="font-style:normal;font-variant:normal;font-weight:500;font-stretch:normal;font-size:39.11478424px;font-family:Metropolis;-inkscape-font-specification:'Metropolis Medium'"
         id="path4186" />
      <path
         d="m 1195.3473,638.48749 c -3.4812,0 -5.9454,-2.42512 -6.4539,-5.78899 h 15.9197 c 0,-7.23624 -3.5595,-11.93001 -9.7396,-11.93001 -5.5934,0 -10.0916,4.45909 -10.0916,10.52188 0,6.21925 4.772,10.63922 10.4045,10.63922 2.8554,0 6.3757,-1.21256 8.175,-3.12918 l -2.4251,-2.50335 c -1.2126,1.25167 -3.6768,2.19043 -5.789,2.19043 z m -0.1173,-14.2769 c 3.4812,0 5.3978,2.26866 5.8281,5.39784 h -12.1256 c 0.6258,-3.28564 3.1683,-5.39784 6.2975,-5.39784 z"
         style="font-style:normal;font-variant:normal;font-weight:500;font-stretch:normal;font-size:39.11478424px;font-family:Metropolis;-inkscape-font-specification:'Metropolis Medium'"
         id="path4188" />
      <path
         d="m 1218.7673,637.82254 c -0.4303,0.43026 -1.2126,0.74318 -2.0731,0.74318 -1.1343,0 -2.0731,-1.01699 -2.0731,-2.42512 v -11.61709 h 4.772 v -3.28564 h -4.772 v -5.5543 h -3.7941 v 5.5543 h -3.051 v 3.28564 h 3.051 v 11.89089 c 0,3.24653 2.1904,5.51519 5.3196,5.51519 1.4473,0 2.9336,-0.54761 4.0288,-1.44725 z"
         style="font-style:normal;font-variant:normal;font-weight:500;font-stretch:normal;font-size:39.11478424px;font-family:Metropolis;-inkscape-font-specification:'Metropolis Medium'"
         id="path4190" />
      <path
         d="m 1233.6664,641.92959 c 3.0118,0 5.6325,-1.25167 7.5882,-3.24653 l -2.6207,-2.386 c -1.2516,1.40813 -3.0509,2.26866 -4.9284,2.26866 -3.7159,0 -6.7669,-3.28565 -6.7669,-7.23624 0,-3.91148 3.051,-7.19712 6.7278,-7.19712 1.8775,0 3.6376,0.82141 4.8502,2.19043 l 2.6207,-2.42512 c -1.9166,-1.91662 -4.5373,-3.12918 -7.4318,-3.12918 -5.789,0 -10.6784,4.81112 -10.6784,10.56099 0,5.74988 4.8894,10.60011 10.6393,10.60011 z"
         style="font-style:normal;font-variant:normal;font-weight:500;font-stretch:normal;font-size:39.11478424px;font-family:Metropolis;-inkscape-font-specification:'Metropolis Medium'"
         id="path4192" />
      <path
         d="m 1247.862,641.92959 c 1.4081,0 2.5424,-1.21256 2.5424,-2.65981 0,-1.3299 -1.1343,-2.54246 -2.5424,-2.54246 -1.4864,0 -2.6207,1.21256 -2.6207,2.54246 0,1.44725 1.1343,2.65981 2.6207,2.65981 z"
         style="font-style:normal;font-variant:normal;font-weight:500;font-stretch:normal;font-size:39.11478424px;font-family:Metropolis;-inkscape-font-specification:'Metropolis Medium'"
         id="path4194" />
      <path
         d="m 1276.2507,638.48749 c -3.4812,0 -5.9454,-2.42512 -6.4539,-5.78899 h 15.9197 c 0,-7.23624 -3.5594,-11.93001 -9.7396,-11.93001 -5.5934,0 -10.0916,4.45909 -10.0916,10.52188 0,6.21925 4.772,10.63922 10.4046,10.63922 2.8553,0 6.3757,-1.21256 8.1749,-3.12918 l -2.4251,-2.50335 c -1.2125,1.25167 -3.6768,2.19043 -5.789,2.19043 z m -0.1173,-14.2769 c 3.4812,0 5.3978,2.26866 5.8281,5.39784 h -12.1256 c 0.6259,-3.28564 3.1683,-5.39784 6.2975,-5.39784 z"
         style="font-style:normal;font-variant:normal;font-weight:500;font-stretch:normal;font-size:39.11478424px;font-family:Metropolis;-inkscape-font-specification:'Metropolis Medium'"
         id="path4196" />
      <path
         d="m 1299.6707,637.82254 c -0.4302,0.43026 -1.2125,0.74318 -2.0731,0.74318 -1.1343,0 -2.073,-1.01699 -2.073,-2.42512 v -11.61709 h 4.772 v -3.28564 h -4.772 v -5.5543 h -3.7942 v 5.5543 h -3.0509 v 3.28564 h 3.0509 v 11.89089 c 0,3.24653 2.1905,5.51519 5.3196,5.51519 1.4473,0 2.9336,-0.54761 4.0289,-1.44725 z"
         style="font-style:normal;font-variant:normal;font-weight:500;font-stretch:normal;font-size:39.11478424px;font-family:Metropolis;-inkscape-font-specification:'Metropolis Medium'"
         id="path4198" />
      <path
         d="m 1314.5698,641.92959 c 3.0118,0 5.6325,-1.25167 7.5883,-3.24653 l -2.6207,-2.386 c -1.2517,1.40813 -3.051,2.26866 -4.9285,2.26866 -3.7159,0 -6.7669,-3.28565 -6.7669,-7.23624 0,-3.91148 3.051,-7.19712 6.7278,-7.19712 1.8775,0 3.6377,0.82141 4.8502,2.19043 l 2.6207,-2.42512 c -1.9166,-1.91662 -4.5373,-3.12918 -7.4318,-3.12918 -5.789,0 -10.6783,4.81112 -10.6783,10.56099 0,5.74988 4.8893,10.60011 10.6392,10.60011 z"
         style="font-style:normal;font-variant:normal;font-weight:500;font-stretch:normal;font-size:39.11478424px;font-family:Metropolis;-inkscape-font-specification:'Metropolis Medium'"
         id="path4200" />
      <path
         d="m 1328.7654,641.92959 c 1.4081,0 2.5425,-1.21256 2.5425,-2.65981 0,-1.3299 -1.1344,-2.54246 -2.5425,-2.54246 -1.4864,0 -2.6207,1.21256 -2.6207,2.54246 0,1.44725 1.1343,2.65981 2.6207,2.65981 z"
         style="font-style:normal;font-variant:normal;font-weight:500;font-stretch:normal;font-size:39.11478424px;font-family:Metropolis;-inkscape-font-specification:'Metropolis Medium'"
         id="path4202" />
    </g>
  </g>
</svg>
